# File created by Blade
# Date/Time:  Wed Apr 08 14:10:43 2015
#---------------------------------------------------------
:version 1.10
:name HOM
:units
  mass 1.0
  length 1.000000
  angle deg
:documentation
     Acclaim Skeleton File
:root
   axis xyz
   order TX TY TZ RX RY RZ
   position 0.000000 0.000000 0.000000
   orientation 0 0 0
:bonedata
   begin
      id 1
      name Spine_dum
      direction 0.000000 1.000000 0.000000
      length 4.885285
      axis 0.0 0.0 0.0 xyz
   end
   begin
      id 2
      name LeftUpLeg_dum
      direction 1.000000 0.000000 0.000000
      length 2.672193
      axis 0.0 0.0 0.0 xyz
   end
   begin
      id 3
      name RightUpLeg_dum
      direction -1.000000 0.000000 0.000000
      length 2.672193
      axis 0.0 0.0 0.0 xyz
   end
   begin
      id 4
      name Spine
      direction 0.000000 1.000000 0.000000
      length 0.000000
      axis 0.0 0.0 0.0 xyz
      dof rx ry rz
   end
   begin
      id 5
      name Spine_dum1
      direction 0.000000 1.000000 0.000000
      length 16.494159
      axis 0.0 0.0 0.0 xyz
   end
   begin
      id 6
      name Spine_dum2
      direction 0.000000 1.000000 0.000000
      length 10.663448
      axis 0.0 0.0 0.0 xyz
   end
   begin
      id 7
      name Spine_dum3
      direction 0.000000 1.000000 0.000000
      length 10.663448
      axis 0.0 0.0 0.0 xyz
   end
   begin
      id 8
      name Head
      direction 0.000000 1.000000 0.000000
      length 4.527550
      axis 0.0 0.0 0.0 xyz
      dof rx ry rz
   end
   begin
      id 9
      name LeftShoulder
      direction 1.000000 0.000000 0.000000
      length 7.531907
      axis 0.0 0.0 -90.0 xyz
      dof rx ry rz
   end
   begin
      id 10
      name LeftArm
      direction 1.000000 0.000000 0.000000
      length 10.229199
      axis 0.0 0.0 -90.0 xyz
      dof rx ry rz
   end
   begin
      id 11
      name LeftForeArm
      direction 1.000000 0.000000 0.000000
      length 8.673495
      axis 0.0 0.0 -90.0 xyz
      dof ry rz rx
   end
   begin
      id 12
      name LeftHand
      direction 0.000000 0.000000 0.000000
      length 0.000000
      axis 0.0 0.0 -90.0 xyz
      dof rx ry rz
   end
   begin
      id 13
      name LeftHand_dum1
      direction 0.000000 0.000000 0.000000
      length 0.000000
      axis 0.0 0.0 -90.0 xyz
   end
   begin
      id 14
      name LeftHand_dum2
      direction 1.000000 0.000000 0.000000
      length 3.937000
      axis 0.0 0.0 -90.0 xyz
   end
   begin
      id 15
      name LeftHandThumb1
      direction 0.000000 0.000000 1.000000
      length 3.937000
      axis 0.0 0.0 -90.0 xyz
      dof rx rz ry
   end
   begin
      id 16
      name RightShoulder
      direction -1.000000 0.000000 0.000000
      length 7.531907
      axis 0.0 0.0 90.0 xyz
      dof rx ry rz
   end
   begin
      id 17
      name RightArm
      direction -1.000000 0.000000 0.000000
      length 10.229199
      axis 0.0 0.0 90.0 xyz
      dof rx ry rz
   end
   begin
      id 18
      name RightForeArm
      direction -1.000000 0.000000 0.000000
      length 8.673495
      axis 0.0 0.0 90.0 xyz
      dof ry rz rx
   end
   begin
      id 19
      name RightHand
      direction 0.000000 0.000000 0.000000
      length 0.000000
      axis 0.0 0.0 90.0 xyz
      dof rx ry rz
   end
   begin
      id 20
      name RightHand_dum1
      direction 0.000000 0.000000 0.000000
      length 0.000000
      axis 0.0 0.0 90.0 xyz
   end
   begin
      id 21
      name RightHand_dum2
      direction -1.000000 0.000000 0.000000
      length 3.937000
      axis 0.0 0.0 90.0 xyz
   end
   begin
      id 22
      name RightHandThumb1
      direction 0.000000 0.000000 1.000000
      length 3.937000
      axis 0.0 0.0 90.0 xyz
      dof rx rz ry
   end
   begin
      id 23
      name LeftUpLeg
      direction 0.000000 -1.000000 0.000000
      length 16.263388
      axis 0.0 0.0 0.0 xyz
      dof rx ry rz
   end
   begin
      id 24
      name LeftLeg
      direction 0.000000 -1.000000 0.000000
      length 14.328163
      axis 0.0 0.0 0.0 xyz
      dof rx ry rz
   end
   begin
      id 25
      name LeftFoot
      direction 0.000000 -0.258819 0.965926
      length 5.031290
      axis 15.0 0.0 0.0 xyz
      dof rx ry rz
   end
   begin
      id 26
      name LeftToeBase
      direction 0.000000 0.000000 1.000000
      length 2.952750
      axis 0.0 0.0 0.0 xyz
      dof rx ry rz
   end
   begin
      id 27
      name RightUpLeg
      direction 0.000000 -1.000000 0.000000
      length 16.263388
      axis 0.0 0.0 0.0 xyz
      dof rx ry rz
   end
   begin
      id 28
      name RightLeg
      direction 0.000000 -1.000000 0.000000
      length 14.328163
      axis 0.0 0.0 0.0 xyz
      dof rx ry rz
   end
   begin
      id 29
      name RightFoot
      direction 0.000000 -0.258819 0.965926
      length 5.031290
      axis 15.0 0.0 0.0 xyz
      dof rx ry rz
   end
   begin
      id 30
      name RightToeBase
      direction 0.000000 0.000000 1.000000
      length 2.952750
      axis 0.0 0.0 0.0 xyz
      dof rx ry rz
   end
:hierarchy
   begin
      root Spine_dum LeftUpLeg_dum RightUpLeg_dum
      Spine_dum Spine
      LeftUpLeg_dum LeftUpLeg
      RightUpLeg_dum RightUpLeg
      Spine Spine_dum1 Spine_dum2 Spine_dum3
      Spine_dum1 Head
      Spine_dum2 LeftShoulder
      Spine_dum3 RightShoulder
      LeftShoulder LeftArm
      LeftArm LeftForeArm
      LeftForeArm LeftHand
      LeftHand LeftHand_dum1 LeftHand_dum2
      LeftHand_dum1 LeftHandThumb1
      RightShoulder RightArm
      RightArm RightForeArm
      RightForeArm RightHand
      RightHand RightHand_dum1 RightHand_dum2
      RightHand_dum1 RightHandThumb1
      LeftUpLeg LeftLeg
      LeftLeg LeftFoot
      LeftFoot LeftToeBase
      RightUpLeg RightLeg
      RightLeg RightFoot
      RightFoot RightToeBase
   end

# File created by Blade
# Date/Time:  Wed Apr 08 14:10:35 2015
# Frame Rate: 120.000 fps
#------------------------------------------------------
:FULLY-SPECIFIED
:DEGREES
61
root -0.892753 32.792009 -17.063871 5.252887 1.864593 -0.594033
Spine -7.245496 -6.502693 0.034381
Head 16.982681 -2.591597 -3.067087
LeftShoulder -21.007120 41.287376 19.111837
LeftArm 58.168068 -55.001933 -61.894514
LeftForeArm 8.545462 0.000000 -3.837098
LeftHand 5.739939 -0.000000 6.367000
LeftHandThumb1 -26.253704 0.000000 33.147579
RightShoulder -5.301060 3.251122 -30.336790
RightArm 11.752951 14.900386 41.169836
RightForeArm -13.520944 -0.000000 1.742296
RightHand 2.268190 -0.000000 0.438806
RightHandThumb1 -24.326973 -0.000000 -32.862282
LeftUpLeg -9.218599 -9.183879 4.601960
LeftLeg 14.852839 -0.000000 -0.000000
LeftFoot -11.220998 10.165198 -19.747827
LeftToeBase -11.278851 -0.000000 0.000000
RightUpLeg 1.836201 2.862132 4.565213
RightLeg -8.009235 -0.000000 0.000000
RightFoot -3.078769 -13.866077 7.405864
RightToeBase -4.356586 -0.000000 0.000000
62
root -0.897858 32.791879 -17.066316 5.246355 1.895771 -0.611169
Spine -7.216269 -6.499428 0.055857
Head 17.016155 -2.587950 -3.070177
LeftShoulder -21.083230 41.297725 19.036817
LeftArm 58.067935 -54.842303 -61.706085
LeftForeArm 8.712094 -0.000000 -3.678888
LeftHand 5.839698 -0.000000 6.708349
LeftHandThumb1 -26.253704 0.000000 33.147579
RightShoulder -5.375168 3.219067 -30.281860
RightArm 11.705346 14.832358 41.077510
RightForeArm -13.578501 0.000000 1.893435
RightHand 2.331311 0.000000 0.202068
RightHandThumb1 -24.326973 -0.000000 -32.862282
LeftUpLeg -9.268528 -9.192125 4.629145
LeftLeg 14.943172 -0.000000 -0.000000
LeftFoot -11.209023 10.158213 -19.733984
LeftToeBase -11.309978 -0.000000 0.000000
RightUpLeg 1.827652 2.872980 4.593963
RightLeg -7.988139 -0.000000 0.000000
RightFoot -3.087211 -13.899908 7.378500
RightToeBase -4.290363 -0.000000 0.000000
63
root -0.903331 32.792019 -17.069621 5.245539 1.924692 -0.627794
Spine -7.189630 -6.477165 0.079792
Head 17.047680 -2.624972 -3.104440
LeftShoulder -21.153142 41.294939 18.959579
LeftArm 57.955059 -54.644559 -61.537410
LeftForeArm 8.723064 0.000000 -3.469001
LeftHand 5.986628 0.000000 7.032497
LeftHandThumb1 -26.253704 0.000000 33.147579
RightShoulder -5.476982 3.130191 -30.211066
RightArm 11.704397 14.735867 40.996796
RightForeArm -13.688673 -0.000000 2.064729
RightHand 2.494003 0.000000 -0.122557
RightHandThumb1 -24.326973 -0.000000 -32.862282
LeftUpLeg -9.320345 -9.201652 4.657452
LeftLeg 15.019811 -0.000000 -0.000000
LeftFoot -11.209812 10.156650 -19.769470
LeftToeBase -11.337692 -0.000000 0.000000
RightUpLeg 1.802164 2.867844 4.621654
RightLeg -7.949348 -0.000000 0.000000
RightFoot -3.083632 -13.918221 7.375810
RightToeBase -4.411290 -0.000000 0.000000
64
root -0.908155 32.792612 -17.073337 5.250015 1.968566 -0.638969
Spine -7.173364 -6.461865 0.099587
Head 17.097788 -2.652404 -3.117596
LeftShoulder -21.181751 41.293040 18.884480
LeftArm 57.716275 -54.374545 -61.257379
LeftForeArm 8.856216 -0.000000 -3.203693
LeftHand 6.166189 -0.000000 7.640453
LeftHandThumb1 -26.253704 0.000000 33.147579
RightShoulder -5.584369 3.002328 -30.121201
RightArm 11.699730 14.635563 40.950705
RightForeArm -13.907281 -0.000000 2.312835
RightHand 2.611186 -0.000000 -0.483300
RightHandThumb1 -24.326973 -0.000000 -32.862282
LeftUpLeg -9.387398 -9.212750 4.683969
LeftLeg 15.113983 -0.000000 -0.000000
LeftFoot -11.197883 10.123177 -19.791258
LeftToeBase -11.395357 -0.000000 0.000000
RightUpLeg 1.780652 2.885763 4.643079
RightLeg -7.929850 -0.000000 0.000000
RightFoot -3.087956 -13.957097 7.358046
RightToeBase -4.422310 -0.000000 0.000000
65
root -0.913127 32.793581 -17.076689 5.250202 2.011971 -0.640389
Spine -7.150723 -6.464001 0.108100
Head 17.142903 -2.654761 -3.115896
LeftShoulder -21.243851 41.358914 18.762544
LeftArm 57.616630 -54.135360 -61.159026
LeftForeArm 8.813969 -0.000000 -2.898052
LeftHand 6.556833 -0.000000 8.032401
LeftHandThumb1 -26.253704 0.000000 33.147579
RightShoulder -5.717208 2.798284 -30.014161
RightArm 11.777123 14.462613 40.970920
RightForeArm -13.853451 0.000000 2.621417
RightHand 2.661673 -0.000000 -0.880978
RightHandThumb1 -24.326973 -0.000000 -32.862282
LeftUpLeg -9.450866 -9.250011 4.701787
LeftLeg 15.207137 -0.000000 -0.000000
LeftFoot -11.191020 10.111246 -19.826089
LeftToeBase -11.376320 -0.000000 0.000000
RightUpLeg 1.763976 2.893127 4.655394
RightLeg -7.908051 -0.000000 0.000000
RightFoot -3.097464 -13.998699 7.362696
RightToeBase -4.419911 -0.000000 0.000000
66
root -0.918184 32.794280 -17.080271 5.242098 2.068653 -0.637889
Spine -7.121157 -6.476997 0.105784
Head 17.207537 -2.662129 -3.080327
LeftShoulder -21.310220 41.451263 18.655171
LeftArm 57.643111 -53.877488 -61.257685
LeftForeArm 8.805449 -0.000000 -2.581460
LeftHand 6.978601 -0.000000 8.601294
LeftHandThumb1 -26.253704 0.000000 33.147579
RightShoulder -5.809451 2.626930 -29.911715
RightArm 11.733470 14.203593 41.028322
RightForeArm -13.787493 -0.000000 3.042024
RightHand 2.744052 -0.000000 -1.495751
RightHandThumb1 -24.326973 -0.000000 -32.862282
LeftUpLeg -9.511882 -9.270379 4.716778
LeftLeg 15.309852 -0.000000 -0.000000
LeftFoot -11.158198 10.062241 -19.853987
LeftToeBase -11.501748 -0.000000 0.000000
RightUpLeg 1.755718 2.871824 4.665313
RightLeg -7.889779 -0.000000 0.000000
RightFoot -3.099817 -14.025324 7.348134
RightToeBase -4.426000 -0.000000 0.000000
67
root -0.923832 32.794813 -17.084070 5.225929 2.137422 -0.625456
Spine -7.084304 -6.504172 0.097083
Head 17.274893 -2.678316 -3.084471
LeftShoulder -21.414724 41.631641 18.484626
LeftArm 57.466634 -53.459948 -61.112444
LeftForeArm 8.564422 -0.000000 -2.185252
LeftHand 7.007290 -0.000000 9.052149
LeftHandThumb1 -26.253704 0.000000 33.147579
RightShoulder -5.916647 2.406195 -29.818898
RightArm 11.726196 14.003916 41.206977
RightForeArm -13.638159 0.000000 3.508003
RightHand 2.999461 -0.000000 -2.088172
RightHandThumb1 -24.326973 -0.000000 -32.862282
LeftUpLeg -9.566366 -9.321601 4.721201
LeftLeg 15.416834 -0.000000 -0.000000
LeftFoot -11.157362 10.023553 -19.915582
LeftToeBase -11.443693 -0.000000 0.000000
RightUpLeg 1.763856 2.857068 4.670706
RightLeg -7.887394 -0.000000 0.000000
RightFoot -3.091688 -14.084983 7.290138
RightToeBase -4.451549 -0.000000 0.000000
68
root -0.927787 32.794798 -17.085233 5.191310 2.212775 -0.595591
Spine -7.034049 -6.548065 0.072015
Head 17.354292 -2.672767 -3.084447
LeftShoulder -21.492035 41.806043 18.298374
LeftArm 57.446958 -53.140122 -61.230571
LeftForeArm 8.348024 0.000000 -1.754497
LeftHand 7.347245 0.000000 9.374385
LeftHandThumb1 -26.253704 0.000000 33.147579
RightShoulder -6.013850 2.208980 -29.739743
RightArm 11.697846 13.819616 41.481217
RightForeArm -13.439571 -0.000000 3.971676
RightHand 3.201633 -0.000000 -2.895579
RightHandThumb1 -24.326973 -0.000000 -32.862282
LeftUpLeg -9.593021 -9.370811 4.702361
LeftLeg 15.508811 -0.000000 -0.000000
LeftFoot -11.129124 9.993380 -19.911691
LeftToeBase -11.535544 -0.000000 0.000000
RightUpLeg 1.790202 2.802886 4.657843
RightLeg -7.871861 -0.000000 0.000000
RightFoot -3.128739 -14.106602 7.308794
RightToeBase -4.452797 -0.000000 0.000000
69
root -0.932268 32.795560 -17.090475 5.189911 2.272563 -0.577873
Spine -7.014453 -6.586260 0.065186
Head 17.425567 -2.673791 -3.096598
LeftShoulder -21.584781 41.973263 18.088453
LeftArm 57.407345 -52.748523 -61.374543
LeftForeArm 7.944348 -0.000000 -1.295979
LeftHand 7.544627 -0.000000 9.798142
LeftHandThumb1 -26.253704 0.000000 33.147579
RightShoulder -6.107670 1.981028 -29.646088
RightArm 11.677049 13.694880 41.846986
RightForeArm -13.187552 -0.000000 4.483208
RightHand 3.831137 0.000000 -3.691499
RightHandThumb1 -24.326973 -0.000000 -32.862282
LeftUpLeg -9.669032 -9.381257 4.701656
LeftLeg 15.622830 -0.000000 -0.000000
LeftFoot -11.090874 9.930144 -19.922238
LeftToeBase -11.596120 -0.000000 0.000000
RightUpLeg 1.781660 2.828441 4.650821
RightLeg -7.872746 -0.000000 0.000000
RightFoot -3.100097 -14.188669 7.245021
RightToeBase -4.529506 -0.000000 0.000000
